/* XPM */
static char *_619902694033[] = {
/* columns rows colors chars-per-pixel */
"64 64 184 2 ",
"   c #323037",
".  c #740101",
"X  c #7C0101",
"o  c #700C1E",
"O  c #771618",
"+  c #7C162B",
"@  c #772636",
"#  c #3F3D45",
"$  c #6B3E45",
"%  c #793240",
"&  c #44424A",
"*  c #454647",
"=  c #4B4854",
"-  c #4D4B58",
";  c #525253",
":  c #565659",
">  c #5B5B5C",
",  c #73434C",
"<  c #755C5D",
"1  c #5D5C63",
"2  c #575561",
"3  c #605D6A",
"4  c #715F60",
"5  c #5F6062",
"6  c #626265",
"7  c #6B6A6E",
"8  c #68676B",
"9  c #6F6F72",
"0  c #797A7C",
"q  c #75737B",
"w  c #850101",
"e  c #8C0101",
"r  c #850A0A",
"t  c #930201",
"y  c #970509",
"u  c #9C0B13",
"i  c #821619",
"p  c #8B1113",
"a  c #9A121D",
"s  c #8B201F",
"d  c #841A29",
"f  c #8B1A33",
"g  c #851931",
"h  c #941A37",
"j  c #98192B",
"k  c #A01E3F",
"l  c #A4192A",
"z  c #89253C",
"x  c #95213F",
"c  c #873538",
"v  c #963333",
"b  c #9C3231",
"n  c #AC253C",
"m  c #992543",
"M  c #8B3948",
"N  c #9A3747",
"B  c #A22443",
"V  c #A32C45",
"C  c #AB2948",
"Z  c #B12C4D",
"A  c #B12A43",
"S  c #AD2D50",
"D  c #BB2F54",
"F  c #AB3252",
"G  c #B9345A",
"H  c #B73558",
"J  c #BD3B62",
"K  c #C7385E",
"L  c #C33C63",
"P  c #CE3F6A",
"I  c #8E5357",
"U  c #935153",
"Y  c #91565C",
"T  c #B8425E",
"R  c #9E5267",
"E  c #AF5C6A",
"W  c #B65572",
"Q  c #9B6B6D",
"!  c #9B6C74",
"~  c #8B7B7A",
"^  c #A46867",
"/  c #A86B75",
"(  c #A6797A",
")  c #B46B79",
"_  c #C64169",
"`  c #CB436C",
"'  c #C44465",
"]  c #CE4B73",
"[  c #D34B75",
"{  c #D3517A",
"}  c #7F7F82",
"|  c #AC6A80",
" . c #A77A82",
".. c #858487",
"X. c #87888B",
"o. c #8B8B8E",
"O. c #87878B",
"+. c #908788",
"@. c #95918E",
"#. c #908E96",
"$. c #9A9794",
"%. c #9D9996",
"&. c #9B9B9B",
"*. c #A68689",
"=. c #B2858C",
"-. c #A88E94",
";. c #A29F9E",
":. c #A89596",
">. c #BE929B",
",. c #BA8498",
"<. c #A5A19D",
"1. c #9E9EA2",
"2. c #BB9BA5",
"3. c #9FA0A3",
"4. c #A5A4A5",
"5. c #ABA5A4",
"6. c #ABA9A7",
"7. c #A5A6A9",
"8. c #A7A9AD",
"9. c #AAAAAD",
"0. c #ACA4A8",
"q. c #BAA6AB",
"w. c #B1ADAD",
"e. c #B8A5A7",
"r. c #ADAEB3",
"t. c #B1AFB3",
"y. c #BCADB2",
"u. c #AEB1B6",
"i. c #B4B3B4",
"p. c #BBB5B4",
"a. c #B4B6BA",
"s. c #B5B9BE",
"d. c #BBBBBD",
"f. c #C78FA4",
"g. c #C197A3",
"h. c #C0A7AF",
"j. c #C6ABB8",
"k. c #C4BABB",
"l. c #C5B8BB",
"z. c #C1C0BF",
"x. c #B5BAC1",
"c. c #BBBEC3",
"v. c #C4BDC3",
"b. c #C3B5C0",
"n. c #BEC1C5",
"m. c #BDC2CA",
"M. c #C3C3C5",
"N. c #C1C6CC",
"B. c #C5C8CC",
"V. c #CBCCCD",
"C. c #D6C6CF",
"Z. c #C5CBD2",
"A. c #CACED4",
"S. c #C1C7D0",
"D. c #D1CED4",
"F. c #CED1D5",
"G. c #CDD3DA",
"H. c #D3D4D5",
"J. c #D2D6DC",
"K. c #D5D9DE",
"L. c #DADCDD",
"P. c #D3D6E0",
"I. c #D5DBE3",
"U. c #DADEE4",
"Y. c #D9DFE8",
"T. c #DADAE5",
"R. c #DDE1E5",
"E. c #DDE3EB",
"W. c #DFE6F0",
"Q. c #E2E3E5",
"!. c #E2E6EB",
"~. c #E4E9EE",
"^. c #E9ECEE",
"/. c #E1E7F0",
"(. c #E5EBF3",
"). c #EAEEF3",
"_. c #EAEFF8",
"`. c #EDF1F5",
"'. c #EDF3FA",
"]. c #F2F4F5",
"[. c #F1F6FC",
"{. c #F5FBFE",
"}. c #FCFFFF",
"|. c None",
/* pixels */
"|.|.|.|.|.|.|.|.|.|.|.|.|.|.|.|.|.|.|.|.|.|.|.|.|.|.|.|.|.|.|.|.|.|.|.|.|.|.|.|.|.|.|.|.|.|.|.|.|.|.|.|.|.|.|.|.|.|.|.|.|.|.|.|.",
"|.|.|.|.|.|.|.|.|.|.|.|.|.|.|.|.|.|.|.|.|.|.|.|.|.|.|.|.|.|.|.|.|.|.|.|.|.|.|.|.|.|.|.|.|.|.|.|.|.|.|.|.|.|.|.|.|.|.|.|.|.|.|.|.",
"|.|.|.|.|.|.|.|.|.|.|.|.|.|.|.|.|.|.|.|.|.|.|.|.|.|.|.|.|.|.|.|.|.|.|.|.|.|.|.|.|.|.|.|.|.|.|.|.|.|.|.|.|.|.|.|.|.|.|.|.|.|.|.|.",
"|.|.|.|.|.|.|.|.|.|.|.|.|.|.|.|.|.|.|.|.|.|.|.|.|.|.|.|.|.|.|.|.|.|.|.|.|.|.|.|.|.|.|.|.|.|.|.|.|.|.|.|.|.|.|.|.|.|.|.|.|.|.|.|.",
"|.|.|.|.|.|.|.|.|.|.|.|.|.|.|.|.|.|.|.|.|.|.|.|.|.|.|.|.|.|.|.|.|.|.|.|.|.|.|.|.|.|.|.|.|.|.|.|.|.|.|.|.|.|.|.|.|.|.|.|.|.|.|.|.",
"|.|.|.|.|.|.|.|.|.|.|.|.|.|.|.|.|.|.|.|.|.|.|.|.|.|.|.|.|.|.I.I.Y.I.I.I.Y.|.|.|.|.|.|.|.|.|.|.|.|.|.|.|.|.|.|.|.|.|.|.|.|.|.|.|.",
"|.|.|.|.|.|.|.|.|.|.|.|.|.|.|.|.|.|.|.|.|.|.|.|.|.|.|.I.Y.I.W.W.W.W.W.W.W.W.W.Y.I.I.|.|.|.|.|.|.|.|.|.|.|.|.|.|.|.|.|.|.|.|.|.|.",
"|.|.|.|.|.|.|.|.|.|.|.|.|.|.|.|.|.|.|.|.|.|.|.|.|.I.Y.E.W.W.W.W.W.(.(.W.(.W.(.W.E.E.R.I.|.|.|.|.|.|.|.|.|.|.|.|.|.|.|.|.|.|.|.|.",
"|.|.|.|.|.|.|.|.|.|.|.|.|.|.|.|.|.|.|.|.|.|.|.|.I.I.E.E.W.W.W.(._.W._._._._.(.(.(.W.W.E.E.I.|.|.|.|.|.|.|.|.|.|.|.|.|.|.|.|.|.|.",
"|.|.|.|.|.|.|.|.|.|.|.|.|.|.|.|.|.|.|.|.|.|.G.I.I.Y.E.W.W.W.(.(._._._._.'.'.'.'.'.'.(.W.W.R.R.|.|.|.|.|.|.|.|.|.|.|.|.|.|.|.|.|.",
"|.|.|.|.|.|.|.|.|.|.|.|.|.|.|.|.|.|.|.|.|.G.I.I.Y.Y.W.W.(.(.(._._._.'.'.'.'.'.'.'.'.'._.(.(.W.R.|.|.|.|.|.|.|.|.|.|.|.|.|.|.|.|.",
"|.|.|.|.|.|.|.|.|.|.|.|.|.|.|.|.|.|.|.|.I.I.I.I.I.W.W.W.(.(._._.'.'.'.'.'.[.'.[.'.'.'.'._.(.(.W.E.|.|.|.|.|.|.|.|.|.|.|.|.|.|.|.",
"|.|.|.|.|.|.|.|.|.|.|.|.|.|.|.|.|.|.|.G.G.G.I.Y.Y.Y.W.W.(._._.'.'.'.'.[.'.[.[.[.'.[.[.[.'._.(.(.~.E.|.|.|.|.|.|.|.|.|.|.|.|.|.|.",
"|.|.|.|.|.|.|.|.|.|.|.|.|.|.|.|.|.|.|.I.G.I.I.Y.W.W.W.W.(.(._.'.'.'.'.[.[.[.[.[.[.[.[.{.[.'.'._.(.~.!.|.|.|.|.|.|.|.|.|.|.|.|.|.",
"|.|.|.|.|.|.|.|.|.|.|.|.|.|.|.|.|.|.m.I.G.I.I.Y.E.W.W.(.(._.'.'.'.'.[.[.[.[.{.{.{.{.{.{.[.[.'._.).(.~.E.|.|.|.|.|.|.|.|.|.|.|.|.",
"|.|.|.|.|.|.|.|.|.|.|.|.|.|.|.|.|.m.G.m.G.I.I.Y.E.W.W.(.(.(.'.'.[.[.[.[.{.{.{.{.{.{.{.{.{.{.[.[.`.`.).~.E.|.|.|.|.|.|.|.|.|.|.|.",
"|.|.|.|.|.|.|.|.|.|.|.|.|.|.|.|.m.Z.Z.G.P.P.I.E.E.E.W.(.(._.'.'.[.{.{.{.{.{.{.{.}.{.{.{.{.{.{.{.'.'.`.(.~.|.|.|.|.|.|.|.|.|.|.|.",
"|.|.|.|.|.|.|.|.|.|.|.|.|.|.|.|.m.Z.Z.G.P.P.I.Y.E.W.(.(.(.'.'.[.[.[.{.{.{.{.}.{.{.{.}.}.}.{.{.{.{.'.`.`.^.E.|.|.|.|.|.|.|.|.|.|.",
"|.|.|.|.|.|.|.|.|.|.|.|.|.|.|.c.m.Z.G.G.G.P.Y.Y.E.!.(.(.).).'.'.[.{.{.{.{.{.{.}.}.}.{.}.}.{.{.{.{.[.'.'.`.~.|.|.|.|.|.|.|.|.|.|.",
"|.|.|.|.|.|.|.|.|.|.|.|.|.|.|.c.m.Z.Z.G.P.P.I.Y.E.!.(.(._.'.'.'.[.{.{.{.{.}.}.{.{.}.}.}.}.}.}.{.{.[.[.`.`.`.|.|.|.|.|.|.|.|.|.|.",
"|.|.|.|.|.|.|.|.|.|.|.|.|.|.|.m.m.G.m.G.G.P.I.Y.E.!.(.(._.'.'.[.{.{.{.{.}.{.}.}.}.}.}.}.^.].}.{.{.{.[.[.'.`.^.|.|.|.|.|.|.|.|.|.",
"|.|.|.|.|.|.|.|.|.|.|.|.|.|.x.m.m.m.G.G.P.I.I.Y.E.(.(.(._.'.'.[.[.{.{.{.{.}.}.}.}.}.}.}.&.6.}.}.{.{.[.'.`.`.`.|.|.|.|.|.|.|.|.|.",
"|.|.|.|.|.|.|.|.|.|.|.|.|.|.x.m.m.G.G.G.G.G.I.Y.E.E.(.(._.'.[.[.{.{.E.R.}.}.}.}.}.}.}.Q.> 6 B.}.}.{.{.R.L.].`.|.|.|.|.|.|.|.|.|.",
"|.|.|.|.|.|.|.|.|.|.|.|.|.|.c.m.m.m.G.G.G.I.I.E.E.E.(.(._._.'.[.{.{.'.3.B.}.}.}.}.}.}.o.7 M.7 B.}.}.}.d.V.[.`.).|.|.|.|.|.|.|.|.",
"|.|.|.|.|.|.|.|.|.|.|.|.|.x.c.m.m.G.G.G.G.I.R.R.E.E.W.(.`.'.[.{.{.{.}.R.X.1.R.{.}.^.&.* M.}.k.5 1.H.n.X.E.[.].`.|.|.|.|.|.|.|.|.",
"|.|.|.|.|.|.|.|.|.|.|.|.|.m.m.m.m.G.m.G.G.I.I.I.R.E.W.(.(.'.'.[.{.{.{.}.`.7.0 9 0 > ; p.}.}.}.H.> ; ; N.{.].].`.|.|.|.|.|.|.|.|.",
"|.|.|.|.|.|.|.|.|.|.|.|.E.G.Z.m.m.m.G.G.J.I.I.I.R.E.W.(.).'.[.[.{.{.{.{.}.}.Q.: 0 ..O.}.}.}.}.}.o.9.9 J.{.].].].~.R.|.|.|.|.|.|.",
"|.|.|.|.|.|.|.|.|.I.E.W.W.E.Z.m.Z.m.G.G.G.G.J.I.R.E.W.(.(.'.'.[.{.{.{.}.{.}.^.: #.;.7 ].}.}.}.}.X.0 1 n.}.].[.].].).~.|.|.|.|.|.",
"|.|.|.|.|.|.|.E.E.(._._.'.(.G.m.m.G.G.G.G.I.I.R.R.E.W.~.).`.'.[.{.{.{.{.}.}.].> 2 3 3 ].}.}.}.}.&.= = a.{.].].].{.{.[.).|.|.|.|.",
"|.|.|.|.|.E.W._.'.'.[.{.{.'.J.S.m.m.m.G.G.G.J.I.R.E.E.(.(.`.'.[.{.{.}.}.}.}.{.~ & - 6 ].}.}.}.}.B.& # c.}.{.[.].].{.{.].|.|.|.|.",
"|.|.|.P./._.[.{.{.{.}.}.}.{.I.m.m.m.G.G.G.G.I.I.R.E.E.W.(.`.'.[.{.{.{.}.}.}.}.V.*   o.}.}.}.}.}.]...8 ~.{.{.[.].{.].`.~.|.|.|.|.",
"|.|.|.E.'.{.{.}.}.}.}.}.}.{.E.B.m.G.G.G.G.I.I.R.R.E.E.(.(.`.'.'.[.{.{.}.}.}.}.}.p.o.Q.}.}.}.}.}.}.{.^.}.{.{.].].].Q.K.|.|.|.|.|.",
"|.|.Z.E.[.{.}.}.}.}.}.}.}.}.!.S.m.Z.Z.A.G.J.J.I.R.E.E.~.(.).'.[.[.{.{.}.}.}.}.}.}.}.}.}.}.}.}.}.}.}.}.}.{.{.].`.Q.p.|.|.|.|.|.|.",
"|.|.N.R.[.{.}.}.}.}.}.}.}.}.E.B.m.m.Z.G.J.J.I.R.R.E.E.~.(.).).'.{.{.{.}.}.}.}.}.}.}.}.}.}.}.}.}.}.}.}.}.{.[.].].Q.|.|.|.|.|.|.|.",
"|.|.|.F.~.'.[.{.{.{.{.{.{.{.R.N.B.m.Z.G.G.J.K.I.R.R.E.~.(.(.).'.'.{.{.{.}.}.}.}.}.}.}.}.}.}.}.}.}.}.}.{.}.].^.^.|.|.|.|.|.|.|.|.",
"|.|.|.a.M.H.Q.~.^.^.`.).).).U.M.m.Z.Z.A.J.P.K.I.R.R.E.W.~.(.).`.[.{.{.{.{.}.}.}.}.}.}.}.}.}.}.}.}.}.}.{.{.Q.L.^.|.|.|.|.|.|.|.|.",
"|.|.|.|.|.6.a.z.M.V.H.H.L.L.H.c.n.m.m.G.G.J.K.I.I.R.E.E.~.~.(.).`.].[.{.{.{.}.}.}.}.}.}.}.}.}.}.}.}.}.'.L.H.Q.~.|.|.|.|.|.|.|.|.",
"|.|.|.|.|.|.|.|.:.<.6.6.a.k.M.d.n.n.m.A.G.G.I.I.R.E.E.E.~.~.~.).~.H.D.Q.^.].[.}.}.}.}.}.}.}.}.}.}.].R.e.v.L.Q.!.|.|.|.|.|.|.|.|.",
"|.|.|.|.|.|.|.|.|.|.|.|.|.;.r.a.s.n.Z.Z.G.J.J.I.R.R.E.~.!.~.(.^.Q.V.~ +.t.c.F.Q.(.`.].].].].].~.H.v.:.I D.Q.Q.|.|.|.|.|.|.|.|.|.",
"|.|.|.|.|.|.|.|.|.|.|.|.|.|.7.r.s.m.m.Z.A.G.J.K.R.R.E.E.!.~.`.^.Q.L.< < 9.p.6.*.:.i.k.k.M.D.i.-.5.M.^ ( R.Q.Q.|.|.|.|.|.|.|.|.|.",
"|.|.|.|.|.|.|.|.|.|.|.|.|.|.1.8.a.s.m.m.A.G.J.K.I.R.E.!.!.~.~.~.Q.D., $ a.H.q.i U a.( s Q p.v d 5.l.c l.!.Q.R.|.|.|.|.|.|.|.|.|.",
"|.|.|.|.|.|.|.|.|.|.|.|.|.|.|.8.u.s.n.m.Z.A.J.J.I.R.R.!.~.^.`.^.Q.D.% @ 0.F.! o c 2.b e b ^ e r :.( U L.Q.Q.|.|.|.|.|.|.|.|.|.|.",
"|.|.|.|.|.|.|.|.|.|.|.|.|.|.|.8.u.a.n.m.B.Z.A.J.K.R.R.!.~.~.^.^.~.v.@ + -.v.m + @ N y t t r w w U c q.~.Q.L.|.|.|.|.|.|.|.|.|.|.",
"|.|.|.|.|.|.|.|.|.|.|.|.|.|.|.|.8.a.x.n.m.B.Z.G.K.I.R.R.~.~.^.^.~.v.z g |  .+ g f f y t e e w X . U R.Q.R.L.|.|.|.|.|.|.|.|.|.|.",
"|.|.|.|.|.|.|.|.|.|.|.|.|.|.|.|.3.r.a.s.n.N.V.G.K.U.R.R.!.~.).^.~.D.M h N N h h h x j y t e w . O y.^.Q.L.|.|.|.|.|.|.|.|.|.|.|.",
"|.|.|.|.|.|.|.|.|.|.|.|.|.|.|.|.|.8.u.s.c.n.B.F.J.K.R.R.Q.~.^.^.^.T.R x m B k k n B B u t e X . Y Q.^.L.|.|.|.|.|.|.|.|.|.|.|.|.",
"|.|.|.|.|.|.|.|.|.|.|.|.|.|.|.|.|.3.8.u.a.n.N.V.J.K.L.R.R.!.~.^.^.!.| B F S S S C Z F l t e X O l.).Q.H.|.|.|.|.|.|.|.|.|.|.|.|.",
"|.|.|.|.|.|.|.|.|.|.|.|.|.|.|.|.|.|.3.8.u.c.n.B.F.J.K.R.R.Q.~.^.^.~. .S F G G D D D G n t e X  .(.!.H.|.|.|.|.|.|.|.|.|.|.|.|.|.",
"|.|.|.|.|.|.|.|.|.|.|.|.|.|.|.|.|.|.|.3.8.a.d.n.Z.H.J.L.R.R.~.`.^.).j.F F J L K K K L A t X M T.^.L.|.|.|.|.|.|.|.|.|.|.|.|.|.|.",
"|.|.|.|.|.|.|.|.|.|.|.|.|.|.|.|.|.|.|.|.&.7.u.d.M.Z.F.J.L.R.Q.^.].).T.W G L P ` ` ` ` n w i j.].Q.V.|.|.|.|.|.|.|.|.|.|.|.|.|.|.",
"|.|.|.|.|.|.|.|.|.|.|.|.|.|.|.|.|.|.|.|.|.&.6.u.d.M.V.F.F.K.R.!.^.].(.f.G _ ` [ [ [ ` a r *.`.^.H.|.|.|.|.|.|.|.|.|.|.|.|.|.|.|.",
"|.|.|.|.|.|.|.|.|.|.|.|.|.|.|.|.|.|.|.|.|.|.&.4.r.s.M.B.F.H.L.R.^.^._.D.T L [ [ { ] n p  ./.^.H.|.|.|.|.|.|.|.|.|.|.|.|.|.|.|.|.",
"|.|.|.|.|.|.|.|.|.|.|.|.|.|.|.|.|.|.|.|.|.|.|.%.<.8.a.z.B.V.H.K.Q.).].).>.V D ' J n U g.(.].H.|.|.|.|.|.|.|.|.|.|.|.|.|.|.|.|.|.",
"|.|.|.|.|.|.|.|.|.|.|.|.|.|.|.|.|.|.|.|.|.|.|.|.|.%.4.i.k.M.V.H.L.Q.^.].^.h./ E ) g.L.^.^.H.|.|.|.|.|.|.|.|.|.|.|.|.|.|.|.|.|.|.",
"|.|.|.|.|.|.|.|.|.|.|.|.|.|.|.|.|.|.|.|.|.|.|.|.|.|.@.&.6.a.z.B.A.H.T.^.`.`.~.Q.(.`.^.L.M.|.|.|.|.|.|.|.|.|.|.|.|.|.|.|.|.|.|.|.",
"|.|.|.|.|.|.|.|.|.|.|.|.|.|.|.|.|.|.|.|.|.|.|.|.|.|.|.|.|.%.<.9.p.k.V.D.L.Q.Q.Q.Q.L.C.|.|.|.|.|.|.|.|.|.|.|.|.|.|.|.|.|.|.|.|.|.",
"|.|.|.|.|.|.|.|.|.|.|.|.|.|.|.|.|.|.|.|.|.|.|.|.|.|.|.|.|.|.|.|.$.<.w.p.a.p.p.i.|.|.|.|.|.|.|.|.|.|.|.|.|.|.|.|.|.|.|.|.|.|.|.|.",
"|.|.|.|.|.|.|.|.|.|.|.|.|.|.|.|.|.|.|.|.|.|.|.|.|.|.|.|.|.|.|.|.|.|.|.|.|.|.|.|.|.|.|.|.|.|.|.|.|.|.|.|.|.|.|.|.|.|.|.|.|.|.|.|.",
"|.|.|.|.|.|.|.|.|.|.|.|.|.|.|.|.|.|.|.|.|.|.|.|.|.|.|.|.|.|.|.|.|.|.|.|.|.|.|.|.|.|.|.|.|.|.|.|.|.|.|.|.|.|.|.|.|.|.|.|.|.|.|.|.",
"|.|.|.|.|.|.|.|.|.|.|.|.|.|.|.|.|.|.|.|.|.|.|.|.|.|.|.|.|.|.|.|.|.|.|.|.|.|.|.|.|.|.|.|.|.|.|.|.|.|.|.|.|.|.|.|.|.|.|.|.|.|.|.|.",
"|.|.|.|.|.|.|.|.|.|.|.|.|.|.|.|.|.|.|.|.|.|.|.|.|.|.|.|.|.|.|.|.|.|.|.|.|.|.|.|.|.|.|.|.|.|.|.|.|.|.|.|.|.|.|.|.|.|.|.|.|.|.|.|.",
"|.|.|.|.|.|.|.|.|.|.|.|.|.|.|.|.|.|.|.|.|.|.|.|.|.|.|.|.|.|.|.|.|.|.|.|.|.|.|.|.|.|.|.|.|.|.|.|.|.|.|.|.|.|.|.|.|.|.|.|.|.|.|.|.",
"|.|.|.|.|.|.|.|.|.|.|.|.|.|.|.|.|.|.|.|.|.|.|.|.|.|.|.|.|.|.|.|.|.|.|.|.|.|.|.|.|.|.|.|.|.|.|.|.|.|.|.|.|.|.|.|.|.|.|.|.|.|.|.|.",
"|.|.|.|.|.|.|.|.|.|.|.|.|.|.|.|.|.|.|.|.|.|.|.|.|.|.|.|.|.|.|.|.|.|.|.|.|.|.|.|.|.|.|.|.|.|.|.|.|.|.|.|.|.|.|.|.|.|.|.|.|.|.|.|."
};
