/* XPM */
static char *_be7edf627554dab978547ba08a00190YesTTZ2MNj31LWgR[] = {
/* columns rows colors chars-per-pixel */
"128 128 79 1 ",
"  c #251E1C",
". c #27201F",
"X c #252321",
"o c #2A2523",
"O c #2E2926",
"+ c #2F2C2B",
"@ c #302A27",
"# c #322E2C",
"$ c #35312E",
"% c #38332F",
"& c #312E30",
"* c #353332",
"= c #393532",
"- c #373837",
"; c #3C3836",
": c #3C3C3A",
"> c #413734",
", c #413A36",
"< c #423D3B",
"1 c #493F3C",
"2 c #3F403E",
"3 c #42413E",
"4 c #4A423E",
"5 c #463F41",
"6 c #444442",
"7 c #4B4542",
"8 c #474846",
"9 c #4A4946",
"0 c #4B4748",
"q c #4C4C4A",
"w c #504743",
"e c #534A45",
"r c #584E47",
"t c #534D4A",
"y c #584F4A",
"u c #4F504E",
"i c #575047",
"p c #585047",
"a c #52514E",
"s c #5B524C",
"d c #574F50",
"f c #545451",
"g c #5B5551",
"h c #575856",
"j c #5A5956",
"k c #5D5758",
"l c #5C5C5A",
"z c #61564F",
"x c #61584F",
"c c #625651",
"v c #645A54",
"b c #695D56",
"n c #635D5A",
"m c #695E59",
"M c #5F605E",
"N c #6A6057",
"B c #63615E",
"V c #6C635C",
"C c #6F685F",
"Z c #71665D",
"A c #73685F",
"S c #646461",
"D c #6D6662",
"F c #6D6965",
"G c #676768",
"H c #6C6C6B",
"J c #716762",
"K c #746A65",
"L c #796C66",
"P c #736D6A",
"I c #796E69",
"U c #6E716F",
"Y c #72716F",
"T c #7C716C",
"R c #706F70",
"E c #747171",
"W c #7E7270",
"Q c #80726E",
"! c #807570",
/* pixels */
"#*&***&*&#&&-&*******&&&++++++##+&++#*&**$**==*==%=*=*;;-;:;:--****&&*&&***&*&**&#&*+*&**%%**=%$*%$=***=*;*=*=*=--;;:-;-*;-=&*&&",
"&+&&&*#**&-&*-*******&*&&+++#+####+#++#$***%*=*%***=*;*=;--::-;*%-**=&*****&***#*#*+&***%---=*%*****=***-;=****-*-;::;-==;-==&&&",
"&&&**&***-&&-**-*******$&&&++&#*&&&&*+&$%$*%==***=*==;;;;;::;---*=%*******==***=&*&&***%%%==%****=======----;-==--::::::--;--&*&",
"&***---2--222-2-2:-2---:---22--2----2-2-:2;2;;2:;;--;--;--:::<::;;;;-;-;-----;::--222-2-22;2;:::---=;------:-;;:;-:<<:::<:<--***",
"&&*-28888qqq88qq88888666888888q8q8qqqu9qqquuqqu89008666666679000008666668090qqq9qqqq99uu9q899996866886888888888800qqqqqqq9q8:*&*",
"***28ququuuuuuuuuuuuuuuuuufuuuffffffffffghfgjhgghhfffffffhhlhhhhfffhfffgfffffgfffuuufuuffaffafuftfffaffaffffhfhuffhhfMhhlhhq5-*&",
"#**28quuuhufuuuuuuauuuuuufuhhfhhhhhhhlhlhhMjMjhjjlhghhhllhgllhhhkhhhhhhhhhhhhfffffffffufggffgfhfffhfhfhhfhhhhhhhkhhhhhklllhf6-**",
"***28ufffffuuuuuuuauuuuuufhhfhhhhhllfllhMhMMlllhlllllllkhhlljhhhkllhkhhhhghhghfhhfhuffMMhhMMMfhhhhhhhhhhhhhhhhhhfhhhhhhMllhf6-*&",
"***2quuffffuuuuuuuuuuuuufhfhhfhMfhMhhhhllhhlllllllllllMljlljlhlllllllhfghlhjjhhhhffffugljlljhlllhhhhhhhlhlhhhhhhhhhhhhllSllf6-**",
"--*29uuufufq2-2#2--&-------22-2-222::2:-::2256:::222::22:::::::<::::2-2::::::::-----*--:62:::::2::::-:-::-:::::----2uhlMMMlf8--*",
"***29uufufq-&-*--2----2--22222222222222222286666666665663336<26<33232222::2:2:::::---:28622222:::6662:::2:2222222----uhlMllf6-**",
"***29uuuhh-----2-22222222222662228882626226788899978680966668668683848446236662222222268668666686626262626222622222--2hhhhhu6--*",
"*-*:8uuhhu----22222886286688688889u88888888utqq9qqqq0q9q0999999999999988866788636626389q99999q9988888988666888888222-:hfhhfu5-**",
"**--8ufauu---22228888888qqqqqqqq9uq8qq9q88qffftfafftqttqtqttqqqqaaqtue9899998996868889aafuuuqufuqqq9quq8qqqqqq8qq682::hhfffq2***",
"***-6uuuuu--22688f8q8qqquuuuuuquuuuq8q99q9ajgfaafagffftdtaaaaaatsaat99t9t9a9aq99q89999ajfuauqffafqauufhuuuuuuuqqq8622-hffffq2***",
"***-8uuuuu--2268quhquqquuuffuffuuuu8uqau99qnnfgafgfgasfgaagggsgsjaiaaaaaaaaaafa9qq99qquBhaaatfaffufffhlfuuuuuuuuqq82:-ffffu8:**&",
"&&+22uuuuu&&2888quhquuuuufhffffiuqa888fqq9qBnfgffgdffydvNgjvcggjggjggifgdfatfga9969auuujjaafafffffffffjfuuuffuauq88622uuhuu82-&&",
"++++2uuqu822228q8quuuuuuuhffhfffut963689q9qnkftqtfdddffnBnbjBgvcgvNvgggfgfggfgt8883989agkaaaaagfaffjfflafufuufuuq882--hhhuu8-&&&",
"+2+22uuuuu+2228888huuuuuuuffffffaqq6686897qkttt0ttgggttdscncbcvkgncgsgsggssfgga88328899skqdfafgaaafffjfjffufffuuu8622-hufhu82&&&",
"+++22u8uuu222288uufuuuuufufufffuffu97990970fw00t7qttgetesgccBNmvgcncaasgfsggggt74389769fntqtqfaftggffjhjfafffufuu882-2uhuuu82&+&",
"+++22uuuuu22288qu8huuuuuaaaafffifat99900860d000w70t0dyttsvbcvbNNgsccasgsgsgggge38498339sv9qetttgagglggggffftffaau882--uhuu88&+++",
"X+++28uuuu2&2288uuhuuuuufffgffffffq9q977666t0607670etydysgbkcbVNvcgcsgsggsygggt33q93338gketqqqttqfknllhhfffgfffau8622-uhhuu82+++",
"+++22uuuuu+22q8fhfuuuuuutffaffaautq8q7666650757755weydysstcNcmbZbsggssssfgsggge;3473<38sk9ttqttatgjggngtffggaaaau862--huuhu82+++",
"++++2uuuuu+2288quuuuuuufaaaaafaittt676665<:60557157wytdypscVvgbgnsgsgsagssgssce33;3<;27iyttttq0qtasakggfggffaaaq88662-hhhuu8&2++",
"*+&22uuufu-226qquuauaaaauauaaaatttq586<<<<<55555445w7wwwwyygyysyzygscgycdgygss3=;3;33,4iawtet70ettpgnaifaauuaaauu82222fhfff82+++",
"+*++28uuuf-2268quauuauauaqtqataqtt766<6:55;5555516755www7wryygsssysgygssgsyze4$;;;=;=;;77ewtetetitacneagiaaiauut882222fuhuu82+++",
"++&22uuufu*228qqaauaaafuaq9tttqe00765<<<-<;;5w556561100ew615wweyspsspsyrpt71$$==;=%=====$=<eeeew9ee99esassauauqa88222+hhffu82++&",
"+++28uuuuu--28quuuuuu9q9879q8999w656515,;<<,<1,;>,1;;,;,>===;==;=;<1,>===$#$%===;;%====;===-;;;=%==;43p9q9aiiqa9u82222uuffu82++2",
"+++#2quuff-228q8uqqq9998978767665555:55,;;;<;,===%&%&=%%%%=>==%$$%===$$$##%%$%$=%%=====;=;=====;===;:;;3333499988222+28ufuu8++++",
"+++28uuuuf-2288uquqqq99996863<3555:<55,5;>;;=>=*=%%%=$%%=%%%%=%#%%%===%$##%##$%%%%=========%%======;=::;;3334389282222uuuuu82+++",
"+++28uuufu-2288uqqqqquq99q866<<<<555,,>,**=;>%=*&*%&%%&%$%%$%==$%#==$%$#%$$#$%%%=%==%%*====$*$$#%$$===;3;233388832222+ufhuu82+++",
"+++28uuuuu-22888uqu999f786<<<<<:5;,;;55>5,**&@&..ooo###%=>%#$$$==%##$$%#$##$$$#=$%%$%%=%%%$=$%%=$*$$==%;;2233333822222fufu8222++",
"+++288fufu-2268qu9u9986843:<<:;=;;,;=5<55555e50dte774443>=$%o@@#%%$%#%%#$####$$$$$$#%;=-,%%&%&&%*%###&%==-;<6336633::-uafuu8:*&&",
"+++28quuuf*2-2u89988866332:<<;&,<46ydknnnnknnnmVDmDPPLIKCVNz6=1%@%#$%%##@@O.oOo..@O.@@.O#.OO@@ooooooO@#$*=;<<666862:--uuaau8:$&#",
"###28uuufu2-26uuaafiasgq3,;-;#1PJDmSkkkkkkGHGGGSGSHFHHYPHHPTPb>,>@#$%#%@==<xvZFVVVBNNVZAmmVvzrytyyre941=*+=;:<36863:-*uafuu92**&",
"#*#28uufuf-228uufjjBBBBV73;;;=gJDDcnkkkDKDDGDDBDFHFPKFHHHHUHPJ11>@#@$$#.%sPPTTIIFTPEYPYPPPLILIPLLPLLKAJJCbe:-:36962--:hfgfu82%$*",
"#-%38uuufu*228uufhljnnBDe3==;7gJDDmnnknnBnnmnDmJVZJJLLLLTLKKIA1,,@#$$#@@NHHRPPRPPPHTYYKYPHHUHHFPCKFAAJJJDJJDn::8862-:3lghfu92%%$",
"#*%2qqufuf*228uuajjnNBsv79===7gPKDDDmkdddvvnmmbdyVVNmZVVVJKLLr71,@###%.eKDLLDIHHUHGHHHUHRPPDDJFPHHUUGHHJJVDVVi:386:-23hhhfu92%**",
"***29uufuf-239uusjjcjgt977==$3bKDmmkmnnmmVVZZbmJAZZmmbmvcvbbyre14$#=##@sPJPLIIPPHIUHUKKGFGHGRHJJFFHFFSGALKDJDg3383::83jhgfu93*%%",
"***2qquiuu*22668u99879eee9;=#4vDnnmDmmDJmJmJLLAmVVvmZmczsvvsre1e7###$##cIPLPAzsyzspbcbVVBNKnvvcbBBBBVVV49sAJV9:332:24:gffuuq3;%*",
"$*%39uuafu--228q9qtt7qet432%%4BCNVVDVZZVJDVNvcbczmZZbzzsezxz41z41##%$@#bTPIV=>11pxpysvbbzbbr1wwr44e4147>1,1544<<32;222hhhfu83;%*",
"$%=89uuuuf-2268qqt9qqttt42%%$4BCDZJJJVZZVZmvVbzvbcsyeyzrrzZx4z44w$%%%%@AIIL4>17eixzsvvvsrzz1wrrw4414441114460<<332;232hggfuq3:*%",
"$%=6uuufuu222888q9489tet44%%#3NKVbvmNvccZceecvszzyzrzsybZVbb4Nz4w%%%%$.JLLb=>1typcsgveezrrzerrrre4444w47714we6:<3;-233gfgfu83==%",
"$%=3quufff--2889qag9tete432%#4NAmgyvve5ryt1weeerrzcbbbZZNZAN4Ap4w%%%%$ ILJ4>14yyppyyrrrrrrrrrr5w44e4w441761w9<3:32;233ggffuq3=**",
"+%*6uuuufu-:2869qeaq4iip42%%@2pLzesrsrw7ewwwsrew1Zbbbbbbbbbb4Arrt%%$%#oLZJ11w4ww4144ww4rrrrzzree4e44r447174e7::6;2=242fffff93*=%",
"$$-3uuufuu-:2899q99eqiixp3%%2#xLs1esy15ewreyssyerbbZZNbZZAZb4Zzzy=%$%%%Jmb1144444444werzzzzzre414ee4r41w517t<:<<3;=233gfffu92%%*",
"$*=39uuufu-:23899t9eqqx44%2%@Xx!w<wwsewweeewwwwwrcZZZbZmbZZb4brww%#=%%=bmr141414444svbbbzzzzrzrzxxzrr44445we,;,:2;;282fafuu93=**",
"$*-6uuufuf-:388uque9qe4x43%%2OxL1>1w71414144we415bmZZmbZAZAmrmsr,%=$%@,vmw44444w4ewrzzzxbzzrzzzzzpre4reww1we:::,;2=33:fuffu93=-*",
"**;<9quffu-:2689qttt00re43%%%Ox!1>47111144r4zzrrzZZZZZbZZZmb5mrr==%%$@,pN4444444>44rxzxNZbbrerzzyewwwww444ie;;;;3;;33<ffafu96-;=",
"==;:9uuuuf-:2880qq0t0eey43>%#.4!1>151>1<144eerrszNLZZJJZmccy5zrr>=%$$@4eb44444441144xxbNZZbrrrrrw4wwwwww44r3;;;3;2=36:fffuuq:-*;",
"--;,8ufuuu-:288qtq0ttwtp432%@ 4!>1117wwwzZZbNZZAAZZZQJQZZZZc1rer>==$%Oeisw4444w4411rbbNbbbzrrrr4ewwew77w4ee,;:;;2;;23<faauu9<;;=",
"=-;:8uufff-:288qqttttqtt4%%%#O4!>>7ww1w74xbNZVZAALLAZZmbbcbczzrr===#$@94s744444414rrzrrrw1rrrr1144www4444te=;=;;22*232aufuf96;--",
";;;:6uufuf-23899qtqt0wtr4%2@#@4T>1wwww7444zzzxpNbQbQbbbzcbzyespp1%=%%#44r4444444prrrp444>rrrrrrrsrw441411r7=;=;2;3::2:ffufuq<:--",
":-;-8fuufu-:3799qqeqttte42%@224T>www4www44444p4prbbbbbzbcs11xrwp,%%%%#4444e444444p4444441wrrrrzzr4144141=e4=;=2;;;-;2:aafuuq2:-;",
"-:::6fhffu-:669qttetttit3%2%%@4I15wwwwww44414444rzbbzyr1=>evww4p,=;$%#3444444>41444444p414zzzzzrw41w44441e,;2%=;33;:::aadfuq5::;",
":---8fufff-2<699qtaatte7%2%%%#4p1www5ee144111444>1511>>5vye4714p4=>#%$@4ww44414,44444444zzzzzzzryzyzetrssr;==%;23;;-:<aafuuq2:;-",
"--::8uffff-83899qeq94323%=2%%%44ewwwii4e444444441erryszpewww44ip4;=#####ww4441144444p444xpx4x4spzzzsppzsx4%%%%;2:<:-::udufuu2:-:",
"-=-;8uufff-268889873332=>;%%%%44wwwwipi4i4ipx444e4414w444ee4444z4%#$%%%#@>44441w4444443444444444114eeerx4>%2$%%2:<-:::uuuufu2-*-",
"-=-:8fhfff2268889883433;%>2%%%34444444444e4p44444>1>>,,>>%%=%##=##%%%%%%##@#%>>>4>3>4%>%>4444,4,1,,>,>%==%;=%$==3:--:-fuffu05--*",
"=*=:8hllMl:::888873833,;23>3>%%3,>1,4444ee44344%>%>>%$%$%%#@@##=%%%%%%%;=%%%%#@#@@%%>>%%%%>=%>=>=%%=%=%===%==22233:--*uduuu8:-*=",
"&*=:0hufff-22288786333;;%333%%2%;===;%=;;;==;=%%%%%%%%%=%$$$##$==%%%%==;=%%%%%%$%%%%%#%#%%%=%;;=%%=%%%%=====-,;3<3:-;-qufuuq:=**",
"**&<qdufff-22688964433332%%>2%%%%%%%%==;=%==%==%%%=%$=%=%%$%%%%%%=;,,,;>;,,,%%%%%%%%%%%%%%%4>>;;;=%==;%;;;;;;;3;3:<--*fuufq9:=**",
"&&*:uuffuf-:268q9988322;>3%%%%%%%%%=;=>>;>%=====%>%===%%$%%%%%%>>,,4,,,,1>3>;11>3%3%=%%2%=;>>33>;=;==%=;=;;,3,333<:--*uffut9:=&*",
"***<qqufff-:268q998484333=2%2%3%=;,;;;,;==;%=%%%%%%==%=$%%;===>=>,=;,,=,,;,>,,,,33>>>3>==3=====>==>>====;;;,,3333<:--*uufuq8:**&",
"$*$28uufff*:3698998838<<,;=;====,=3,;;;;=%*=$$$$%;*$$%##$$$===%=%4%%==#%%>>>,,,3,,=,;=2%%%=2%2===3%2@%2%==;3343333;=-*uffuu8-***",
"&*$:8uffhf-:369uaiqtipate81<%$%>;>==;=;=$$$$;7pxNNNbbmmmxszvrrye4p4xccczr>%%==,,4>;>;=%%2%%%%%%=%>2%%%%%==;,3;33322=--uiuuu82$*&",
"$**28ufffh:26ufglnnnDDDJKKJJCx4===%===%$3pNAKQTTPTIIITILTQITITIITT!QIIIWTQNv4,>>==;>=%%%>%%32%==%%%%#%@%%%;;>432332=**ufuuu82**&",
"&*$28uuhhf:38qugkknnVBVVVAJKIKIy#%%==%$NIQTIJJPKHKPPDKPFKKLPPPPIKPLLJPPJLLLLL,==%=,=>%%%%%@O#+O.o%@...o@#,4944ii43222-fu88f8-**&",
"&&*28uffff226uafllnBBBDDFVCKKLIP4#===$4PILLKPPHHHUHUHFPPFFPFPRPJKFHKPHPLLLLLA3%%>;>,#%ep4xpigNCNCANgxNNZAAKJJVBbgi632:fu3uu8:*$&",
"****3qufhf226qagjlllBSSDFFDLPPJLs%%==%iLIKJYPDHYPFDLPJFFPFJPPLFPIIILKJKLFIKJA4%>==;%4AILTLLKLLFKKKKKALLAJJJAVVBnfu962:fq88882$**",
"$**-8uuhhf-26qagcgnnBNmDVNBNJJzLs#==>%9PKFIYPPJJJLLLLKLJJLPLLLLLILLLLITITLACb=%,;>=,LTKDAFKHUHFGKHHFCCACDGDVSDBggiu82:gfquu82***",
"&***2ufffi2269uajjknnmgtitt7tdesi%,>%%3TPTTJVVVVJKDDDZVJVLKKZZbzgxsxsszvcsNx4#>,>;;pTLJJPKHUHHUHUHHUHHHFHHGGGSBkga63;2ffuu882**&",
"****2uufff-:29aiaggggiaseetw757rp3,;;%3QLIIzyADVDJJJDAFVVJLLvseyeyyyyyrywwwew$>>>;=xTTJLKKRKKRDDFHGFHHDGGGGGGSMjfq42-2ffuuq82=**",
"&**-8uuuuf-289afagjaasi9700we71ys$;;=#4QFIvcvZJJVLKDJJKJJLLJyyyyyyydsyzy7rrr6$>=>,%xILLKmbbmvmmJBCCNJJJDKKJDNnlkiq622;fffuu82%*$",
"&**-8quuaf*:3qaiiaaigsai0e0weeyyi%%=,$4LIszgvbJVVKJLJKLVAAZryeewyysbccvzzcer4%;=%=$rWLsy55dcccmccvvmJmmvcckcncgga933;-hffuu82-&#",
"#*#28uuuff-226uf99iaaattsyw0dyse4%%,3$4IIbvcvbbJJVZnVVVVbcyrwyybbbbbccyrmvye1%;%=>$wTC7w5cccmmcbcnbvccckdvdckctte932;2fhMuu82*#*",
"#$#28quffu-2389uaaaatskttttweere3%>>,#4TLsscvmJJJm5decbcwyyyzccbbbbczzyzvppp=;==>%#5Qmwyzmmmmmmvvvcbcmvcbzckccgfa8432;ffMfu8-$&#",
"#&*28quufa-:38quafsggklitttew9i4%>>3>#4TIwscmZJVJVydgrs0ryzybbbbbbbcz1Zbbsp4>%==>%$wQQwy5mmmmmbmmmbbmmbvncdvvdgda8632-hhfuu8-#*&",
"&*%28quuuu*236uiggjjkkvassytetp>%>=32$4TLsvmmJJAZJtsdyeerrzzzbbbmmbbv1JVbpre,%=>>$>wQb5zyybmbmbcbmmbmmbcdcbcvkdda96622Mhfuu8-*##",
"+#-28quuau-;38iffaskggvgttye0te33%=%%%4TDvccbmmVAvcyyyeerrzzzzzzcvvcz4bvvppe,%%=>>@yQb5ybbbbmmczbbvcmccnccdvkcdta96622Mhfff2-#**",
"*+-28uuuuu-:29quafgjgnBbcssssie,%%%%%@4TNNcbcgvVvccbcrrwwrze1wrr111rebzczzee,%%>,%#xTb4edvbcbczcvccbvcccccgcggrae98422jhffu4-*$$",
"***28quuaa*:38qagagggjnNnvjvse9,%%%#%%4!AxNxiewwvsyyyw,>44wrrbbZAQJbZcbccre4;%%,,=@xQs4ezvbczczvcccvgzcggcgtaaiau9822;hhfuu8-**$",
"%*-28uuauu-:389agjgaaapkase7444,>@%2%%pLNspiewrgzezyewzbvzbzzzzzzzczsczyprr4%%;;=%@NIweesyrrdyezzyzyeyygsgpgsasaa9632;fhMuu6:***",
"*%%28uauau-2349qqatqiqttia749e4=%%3323xAx4eewrr7wwe41wyzzzzzrszyzszzzyzysrre=;>,=$#NJwwrdyeeyzsyyzssssyzsgagtsaaq68822hhfuq3-***",
"**=39quuuu*;238qqqqt9qattt7wte4>%4%44%xNz5weewysw4114r4pzzrzrzzzzzzczzyysere%%=>>%$VLeryywwygzzyzszssssgsssfgagai9882-fffuq2-%==",
"===29quuuf--238qqatqaaet9tt0yt4;%34%%%xxe5wwetyyz41144zzrrzzzzzzzzzyyyyriee4%%;;==>Amweryeyzzzsszyzzzscscgsgagfgg963::MMffq5-;*=",
"**:29qaafu-2268qqaaaa9qq99tgttw>%3%%%%xxweyeyysyr414r44pzzzzzzyzzzzzyyrriip4%=;>=%>Lbwrscyssyzgzssssscggstgfgssauu6222Mffqq6;==*",
"===28uuauf*:2389qtaaaei9eeesst7;2>%4434x5yyssr0w4114rrz4wrrrerryyyyyyyr54ep4%=;==$5Bcwyyyysyzsspssysyzssssgyaaaau68422faffq<-===",
"%%%28quffu--238qu9qfiaiuieipip4%>,3,>>ereeyyre5e44444z4p4rz4z44ryzrer4p4rep4===%=$7mveeeesycccyyysydzcsdssjsfaau9868::ffufu3;=*=",
"%%%28quiuf*2248qiqaafauiqae4ip4%43,,;;9eyyyy5eew444xp4p4rp4z4rre5ewwiirrpse,=,,%$=1byerrssssszysrzyzycsygaiapaeu986:--fffqq3***$",
"**%23uuuuf--238quqquaiau9teqii433>,,,=piezzdwyyw4xx4x4z4rr444z4r4zrr4p4433>4=;,%%=7yrwwerycyzsspyzdzy07ysiiaaaaaq922:-ffffq2=*=$",
"%*%28quuuu--283q8qqq996433332%2%3>,;;=4455>>=>%%%%33>4444rz4z4err4r1>=4==3,4>,>==;,eee445yeyeyryrrrerww09iaaaaiqq982:-uffqq3==**",
"**%23uuuuu#2223q8u89q9q683;<3%3>;3=>;,>;%%%%11,,3>>=2%%%>>%==;==>>%=====>=,=,=;===17wee9eeww7wwwe9ew779ei9aiuuuuq86::-fufuq<=***",
"**%28quuu82*228888q8899633333=%=%====,;===;;,,;;>%%%=>3>1>>>:,=,>>,;=;>>%%#%==%=;>,47w41,1,,;;=,,,<4<<4499q99u9uq86:--ufufu6=**=",
"*%*28quuuu-2233q8u8u9886643,>33=%=3>,,%=>=;,>====%%%%=>3;%=,<>,,,11;;;,==%@%=%%%===%===#&=%%##=;;;;-;;2348999uqq886::-uufqq6=***",
"**%-8uuuuu*22288q9q8q99963323=3=2%3>,=%;===,>%$=%=%%=%====2><,;;=%%%%>=%%@#%%%@$##=##$##o@@##===;=;:;;<399999u9qq862:-ffflq6==**",
"***:8quuuf--228888quq999483822;;;===$%#%%#%%$+OO$%%%%%=;;,<<<<,;;>,66wytpggggggkcbbnbcbgs43%o%;;;%;;;;34889euuuq8822--uffuu2-**%",
"**%:3uuauu--268q8q8qq9q88349933333,>=,334>>44eie4=,;$*;;<=;,,5tygnnnmmnnVBVVVVVDFFKDFFKDCKKFg%%;,%;;3436999aquuuq8822-ffuff2-%-*",
"**;:3uuahu--26888qqquqqaaiijvxxNBVVCAAAAIAALAILTIs46=$;,,;;;5kmBVDDmDDDDKDFFHHPFDDKFPPPPYKJLKe==;=;:879aijfjjgffu9322*fffuu2:-**",
"-**;6uuahf--2288q8quagjjMBBBSGFSHGFKFPPPPPKFPFLKLN44,*=;>=*%cJJPFDPFPHRRRRPPYYIFYYYPYYLKPKHIC4<=;;=4NNBBBBjjjgffu88222ffffu8*===",
"==--69aauu--2688quffflhlvjMBBBFFFFKFJFKJFFLKHKKKIc455==;===;vWJFPRRPFRFJVmmbzzvbbmmNVbvzNALKs,1*;=*vDDnlMjvjhhffu8822-ffffu4:*==",
"*=;;6uuuhu-22688uufhhfjjjMvBBVNNVNVVAAZAZAAAAAAZc11561==;;=1VIVJDDmbzsew6444151w4774151117w414<=:2;xBVnnvBjjhgffu9822-fhfff82=;*",
"=*-;6ufuuu-2268uuuffghlhjjgggcs944444ew44444444447w565=;===1VWwwyeeywr64ew49wweyyyeerwwwwew6673-;3:gBnBkjjjjhffiqq422:fffMHM3:*=",
"*;=-6uufhu--288quuffffggjvgagnge4979e44w4ii494e47w7w6,;;;,>5mWwyygsyryweeww45wedyyryy0weeew7484;332cBnnkgjjjjjgfuq822-ffffMg6=**",
"*=-:8ufuff-:2888qqfffgffjggfggN90eeee7weee44470ew70w7,;:;>;%VIyyssysye0ee77171eeee0eryeeee0e6634332jBgjjjnkjhhffuq8222hhhuf22-%-",
"**=:quffuf-:868uufqufffhgaffggqqw0eeeeerer44eewwww0w0;;>;===VKtyyddyyzeeew7677eyydytyyeeee7ew68<433jNgjjjjljhhffuq8622hfhuh82-*%",
"**-39uffff:288uqauufaaufffiiaieiqte99retre9ere7wewww6,,;;;=1JJyssgscsgywt7e77wetyyyssst0e97tt878834jBjMghlgghffhuu822-ffuuu82-*-",
"*-;29fffff2268quuffqffffhfaaaueatttqettteee0retww0wt6,::=-;5KJycsdyzdwe77777weeeyygyd0ett00rt778934jMjgMjhhhhhhhfq82--ffhuuu3;*=",
"*;-5qfhfhf222qqufufuufuutffqaaaitattittettreette0eet7::<;;:eKVydyydsr5ew70eetetygggydtsgttqfs9u9944MMgjjjjhlghfgfu822-fhffuq2-*=",
"-;;59fhhlf-228quufufffuuufaffaftttisatttttttttt9te0t7<<::<1tPmtyggdssdtteet0etsgyttyygkctsdgaq99888MBhhfglMSSMlfuu822:fffhuq3:-:",
"-::6qfhhhu228qqufffuufudffqffaftsaastattttytettt9qtt966<5,6tJnygygdgcsytet000tykggggggttftijsuau68uhMfhMllMhhhffuq822-hhhfuq3:;;",
":,:6fhhhhh-22qquuufffuffffffaafhafiaatatftstaea9ttttt6655:<gVcggdggdt0ttt0ew0tgygtdgtstdiqafauau6quMMiMfgffhgffuu9822:fhhff9<:::",
"::23uMhhhh2268quuffuuhuhuffuffhfaaaaaaasfaaseataattaa6469:<gVggsstggtttqttttttgcggsfasfagafaaah88quhlMhhffffhffuuq8222hhhhuq2::-",
"=;:2uhMhhh2288quufufuhfufufufufhfffaaafssfataaaeeqaiq668t;6gngfgdgadttfttggttfattqtqqttatatgaul38uuflhuuuuffufuuqq882-hhhhh8:---",
"---2uMMhhM2268qquuufuuuuufufuuuhguaffafaaaattqaaqatai889f-6fntfftfttatattfttttttqttttqttqtafuuh28quffffuuuuuuuuuqq622-hhhhu8:;-:",
"==-2hMMhhh22688qqqquuuuuuuuuuuuffufaaaaaiaqaaq9qt9aa9898f*6fgtttutattq9009q0qtqqtquiqqqtfqqtuuh:8quuuufqqqqquuqqq86222lhhhh8-;--",
":-;8uMMhhh222668q8q8qqquqqqqqqquuuuuuauuqauqq9999qqt8889h*6qs9qtqqqq7787887807999qq99q999q9q99f-2uffq8q808888088822:::hlhhh8:;;-",
"-;,8uMMhMh-22268888q88888888888q8uu9q9quaq99999999998866f*2998q9900788668888888969988798888788h-2888u888866888666222-6lhlhh0;-:;",
";;;9hhMMMhu22262826226666668688888q989888999988896966666f$28988978866522366<636666388388686686h*:22288226262222622:28hhlhhh6::;;",
":-:qMMMGMMMhMMMMMMMllhhllhhllMllMSMBBMMMlGGSBMBMMMlllllME3flBljllljllllllkllllljjlkllllllllllME8uhhhhllllhlllllhllllhMlllhf5::;-",
"--;6gSSSMMMMMMMMMMMMlhhhhlllllMllSMMMMMBGSMMlMlMMjlMlMMMH2lllllMlMjMlllMlllMllMjlnlnlllnMllMlSEu8hlllllhlhllhhhlhlhlhllllhf5--;-",
";;-6hllMMMMMMSSSMMMMMMMlllhhllMllMMMMMMMMlMMMMMSMMMMMjMFl9hllMllMMllllllBllllnjMlllllMlljMllMSHS2uhhhhhhhhhhhlShhhhllllllh9:-;;;",
";-;6flllMMhMMShfhMhlhllMhhhhhMlMllMMlMMlMlllllllMMhMhMMSh8hllllhghhhghhhjhjjhhjjhhhllhhhjghhfSjHl2fhhhhhfhhghhlhhhlhhhhhhu2-;;--",
"-;-:qfffhuuufuuuhuuuuq888qqquufufhfffuuuuuuuafffgfuuuffMu6fhffafauauuuuuuuuugaaafuuqafffufffufhfS-qfufuufuhSSMfuuuufuufuu5:::-:;",
"-=*-:2222222222222222--2----:22262222::-::-:,<6333222339u*88999986668838668886888866668889865353d&-626660qq00f05558855055::;-;-;",
"*-*--*&-*#&*$-**2&*&**&+#&&*&&&*$$*&*$$*%%%**=*===**=-=:9*+:3:2:2:::-2-:::---:----;;;;-::;:;;;**6O#-----::;---:---::;5:--;;;;---",
"*=*****&****$*---**&*&&#&++#&#&&$+++++&*$**%*=*$%%$**;*;;7X*:-:--****************$*#****========6=o&**==-=-=-=-=-=--:;;;---;;-=-",
"*&***&*&&*&$*****-#-*#*#&+++#&&++++++++*$$$$*$$*$$$$%**;;82X---=**$$$&&&*&*&&$*$&$&*&#$**=*===#&*#++O#**====&==&*=-:;;;-=-:;;-=="
};
