/* XPM */
static char *_d4ce64d8cf14ddbe5738908ae071691qaIsWd68Q86O4Y90[] = {
/* columns rows colors chars-per-pixel */
"32 32 6 1 ",
"  c #09080B",
". c #12111B",
"X c #1B1A2C",
"o c #20283D",
"O c #2A4C69",
"+ c #64A1B1",
/* pixels */
"..oOO+++OOo...ooo....... oXXX.o.",
".oooOOOO+OOo.oOOOo...ooo ooXXXo.",
" ooXXXXXXXXX.OOOOOo.oXXX ooXXXo.",
" ooXX.....XX.oXXXXO.oXXX oooooo ",
" ooX.....XXX.o...Xo oXXX oooooo ",
" .oooXXXXooo.X...Xo oXXX ooooo..",
"....     ....X...Xo .oo. .ooo...",
"++OOo .oOOo..X..XXo          .oO",
"OOOoo.oXXXXo.o..XXo          oO+",
"XXXXX.oX..Xo.o..XXo .oOOOo.  oOX",
"....X.oX..Xo oXXXXo oO+++Oo  ooX",
"...XX..XXX.  oXXXXo OOoXXXo  oo.",
"XXX..        .oooo. OooX.Xo  .oX",
"                   .ooX...o     ",
"oo.  .ooO++++Ooo.  .oX...Xo .ooo",
"ooo .oOOOOOOOOOOo. .oX..XXo.oooo",
"XXo oooXXXXXoooOOo..oX..XXo.oXXX",
"XXo oo.........XOO..oXXXXXo.oX.X",
".Xo ooX.......XXoo..oXXXXXo.oX..",
"XXo ooXX....XXXXoo. .ooXXXo.oX..",
"Xo. ooXXXXXXXXXXo.   .oooo. .oXX",
"    oooooooXXXXX.               ",
"  ..........             .oOOo. ",
".oooOO++++++Oo.  .oOOOo. oOOOOo ",
"oXXXXXXXXXoOOOo  oOOOOOo OXXXXo ",
"XXXXXXXXXXXXoOo  ooXXXoo OXX.Xo.",
"X..........Xooo  oXXXXXX oXX..X.",
"X..........Xooo  oXXXXXX oX...X.",
"XX.......XXoooo  oXXXXXX oX...X.",
".XXXXXXXoooooo.  oXXXXXo oX...X.",
".......          .ooooo. oX...o.",
".............      ...   oX...o."
};
