/* XPM */
static char *_619903323406[] = {
/* columns rows colors chars-per-pixel */
"64 64 172 2 ",
"   c #000000",
".  c #080503",
"X  c #0D0907",
"o  c #0D0D0D",
"O  c #170000",
"+  c #120C07",
"@  c #130B08",
"#  c #14110F",
"$  c #161616",
"%  c #1B1612",
"&  c #1F1913",
"*  c #1B1B1B",
"=  c #201F1E",
"-  c #3E2815",
";  c #242424",
":  c #282727",
">  c #2C2C2C",
",  c #302F2F",
"<  c #353535",
"1  c #3E3E3E",
"2  c #5E0000",
"3  c #560C0C",
"4  c #650B0B",
"5  c #452D19",
"6  c #46301E",
"7  c #4C321D",
"8  c #52351E",
"9  c #553A24",
"0  c #583D26",
"q  c #523620",
"w  c #7A3B3B",
"e  c #5A402A",
"r  c #3F4040",
"t  c #414141",
"y  c #464848",
"u  c #4B4C4C",
"i  c #5D4F43",
"p  c #5F5147",
"a  c #5B544E",
"s  c #4F5151",
"d  c #525454",
"f  c #575959",
"g  c #5D5D5D",
"h  c #615144",
"j  c #725E4E",
"k  c #6C5954",
"l  c #756455",
"z  c #5F6161",
"x  c #646565",
"c  c #6C6D6D",
"v  c #7B6767",
"b  c #727474",
"n  c #797979",
"m  c #7A7875",
"M  c #9E0000",
"N  c #A60000",
"B  c #FB0C0C",
"V  c #FB0C0C",
"C  c #FB0C0C",
"Z  c #BF2626",
"A  c #FB0C0C",
"S  c #FB0C0C",
"D  c #C90808",
"F  c #FB0C0C",
"G  c #DB0000",
"H  c #DD0B0B",
"J  c #CA1A1A",
"K  c #C41313",
"L  c #FB0C0C",
"P  c #FB0C0C",
"I  c #ED0A0A",
"U  c #FB0C0C",
"Y  c #FB0C0C",
"T  c #F60E0E",
"R  c #FB0C0C",
"E  c #FD1313",
"W  c #FE1818",
"Q  c #DD2C2C",
"!  c #D72525",
"~  c #D53636",
"^  c #D93333",
"/  c #DA3C3C",
"(  c #E42B2B",
")  c #E92727",
"_  c #FF2424",
"`  c #FC2C2C",
"'  c #E33434",
"]  c #E83030",
"[  c #E23D3D",
"{  c #EC3939",
"}  c #FF3434",
"|  c #FF3D3D",
" . c #895555",
".. c #875959",
"X. c #8F6868",
"o. c #8D6060",
"O. c #996565",
"+. c #996A6A",
"@. c #947575",
"#. c #A27878",
"$. c #CB4E4E",
"%. c #DD4343",
"&. c #D74D4D",
"*. c #D94C4C",
"=. c #C95757",
"-. c #D35757",
";. c #D35858",
":. c #D95E5E",
">. c #EC4343",
",. c #EA4848",
"<. c #FE4343",
"1. c #FF4B4B",
"2. c #E65C5C",
"3. c #E85252",
"4. c #FC5454",
"5. c #FF5B5B",
"6. c #CF6363",
"7. c #C96D6D",
"8. c #DA6868",
"9. c #C47575",
"0. c #C27E7E",
"q. c #E46969",
"w. c #E36767",
"e. c #FF6464",
"r. c #E17676",
"t. c #FE7676",
"y. c #FF7A7A",
"u. c #7E8080",
"i. c #828383",
"p. c #8B8B8B",
"a. c #8D8781",
"s. c #998B8B",
"d. c #9D9392",
"f. c #959898",
"g. c #A88686",
"h. c #B68C8C",
"j. c #B88B8B",
"k. c #BE8585",
"l. c #A69696",
"z. c #B69696",
"x. c #9FA2A2",
"c. c #A3A4A4",
"v. c #A7A7A8",
"b. c #A6AAAA",
"n. c #AAADAD",
"m. c #B7A6A6",
"M. c #A9B1B1",
"N. c #BAB9B9",
"B. c #FB0C0C",
"V. c #FB0C0C",
"C. c #D89F9F",
"Z. c #DA9797",
"A. c #FF8E8E",
"S. c #FC8787",
"D. c #FF9494",
"F. c #FF9898",
"G. c #FB0C0C",
"H. c #D4AAAA",
"J. c #D3B3B3",
"K. c #FFABAB",
"L. c #FFB4B4",
"P. c #FFBCBC",
"I. c #BFC2C2",
"U. c #C2C2C2",
"Y. c #C7CBCB",
"T. c #CCCFCF",
"R. c #CCD3D3",
"E. c #FFDFDF",
"W. c #FFD3D3",
"Q. c #FFF0F0",
"!. c #FFFBFB",
"~. c None",
/* pixels */
"~.~.~.~.~.~.~.~.~.~.~.~.~.~.~.~.~.~.~.~.~.~.~.~.~.~.~.~.~.            ~.~.~.~.~.~.~.~.~.~.~.~.~.~.~.~.~.~.~.~.~.~.~.~.~.~.~.~.~.",
"~.~.~.~.~.~.~.~.~.~.~.~.~.~.~.~.~.~.~.~.~.~.~.~.~.~.~.~.~.X X . . . . ~.~.~.~.~.~.~.~.~.~.~.~.~.~.~.~.~.~.~.~.~.~.~.~.~.~.~.~.~.",
"~.~.~.~.~.~.~.~.~.~.~.~.~.~.~.~.~.~.~.~.~.~.~.~.~.~.~.  # p h 6 5 7 6 X   ~.~.~.~.~.~.~.~.~.~.~.~.~.~.~.~.~.~.~.~.~.~.~.~.~.~.~.",
"~.~.~.~.~.~.~.~.~.~.~.~.~.~.~.~.~.~.~.~.~.~.~.~.~.~.~.. % j j 9 8 9 9 + . ~.~.~.~.~.~.~.~.~.~.~.~.~.~.~.~.~.~.~.~.~.~.~.~.~.~.~.",
"~.~.~.~.~.~.~.~.~.~.~.~.~.~.~.~.~.~.~.~.~.~.~.~.~.  % i i 0 0 8 8 9 0 5 - +   ~.~.~.~.~.~.~.~.~.~.~.~.~.~.~.~.~.~.~.~.~.~.~.~.~.",
"~.~.~.~.~.~.~.~.~.~.~.~.~.~.~.~.~.~.~.~.~.~.~.~.~.  & l l q 7 8 q 9 0 8 7 +   ~.~.~.~.~.~.~.~.~.~.~.~.~.~.~.~.~.~.~.~.~.~.~.~.~.",
"~.~.~.~.~.~.~.~.~.~.~.~.~.~.~.~.~.~.~.~.~.~.~.~.~.  : n.d.& % a a = % m a.=   ~.~.~.~.~.~.~.~.~.~.~.~.~.~.~.~.~.~.~.~.~.~.~.~.~.",
"~.~.~.~.~.~.~.~.~.~.~.~.~.~.~.~.~.~.~.~.~.~.~.~.~.  > U.v.o o z g X o p.c.:   ~.~.~.~.~.~.~.~.~.~.~.~.~.~.~.~.~.~.~.~.~.~.~.~.~.",
"~.~.~.~.~.~.~.~.~.~.~.~.~.~.~.~.~.~.~.~.~.~.~.~.~.  > U.v.# o g g o o p.c.;   ~.~.~.~.~.~.~.~.~.~.~.~.~.~.~.~.~.~.~.~.~.~.~.~.~.",
"~.~.~.~.~.~.~.~.~.~.~.~.~.~.~.~.~.~.~.~.~.~.~.~.~.  > U.v.o o g g o X p.x.;   ~.~.~.~.~.~.~.~.~.~.~.~.~.~.~.~.~.~.~.~.~.~.~.~.~.",
"~.~.~.~.~.~.~.~.~.~.~.~.~.~.~.~.~.~.~.~.~.~.~.~.~.  > U.c.o o g g o o p.c.;   ~.~.~.~.~.~.~.~.~.~.~.~.~.~.~.~.~.~.~.~.~.~.~.~.~.",
"~.~.~.~.~.~.~.~.~.~.~.~.~.~.~.~.~.~.~.~.~.~.~.~.~.  > U.v.o o g g o X p.c.:   ~.~.~.~.~.~.~.~.~.~.~.~.~.~.~.~.~.~.~.~.~.~.~.~.~.",
"~.~.~.~.~.~.~.~.~.~.~.~.~.~.~.~.~.~.~.~.~.~.~.~.~.  > U.b.o o g g o o p.c.;   ~.~.~.~.~.~.~.~.~.~.~.~.~.~.~.~.~.~.~.~.~.~.~.~.~.",
"~.~.~.~.~.~.~.~.~.~.~.~.~.~.~.~.~.~.~.~.~.~.~.~.~.  > U.c.# o g g o X p.x.;   ~.~.~.~.~.~.~.~.~.~.~.~.~.~.~.~.~.~.~.~.~.~.~.~.~.",
"~.~.~.~.~.~.~.~.~.~.~.~.~.~.~.~.~.~.~.~.~.~.~.~.~.  > U.c.o o g g o o p.c.;   ~.~.~.~.~.~.~.~.~.~.~.~.~.~.~.~.~.~.~.~.~.~.~.~.~.",
"~.~.~.~.~.~.~.~.~.~.~.~.~.~.~.~.~.~.~.~.~.~.~.~.~.  > U.b.# @ g g o o p.c.;   ~.~.~.~.~.~.~.~.~.~.~.~.~.~.~.~.~.~.~.~.~.~.~.~.~.",
"~.~.~.~.~.~.~.~.~.~.~.~.~.~.~.~.~.~.~.~.~.~.~.~.~.  > U.v.o o g g o o p.c.;   ~.~.~.~.~.~.~.~.~.~.~.~.~.~.~.~.~.~.~.~.~.~.~.~.~.",
"~.~.~.~.~.~.~.~.~.~.~.~.~.~.~.~.~.~.~.~.~.~.~.~.~.  > U.v.o o g g o o p.c.:   ~.~.~.~.~.~.~.~.~.~.~.~.~.~.~.~.~.~.~.~.~.~.~.~.~.",
"~.~.~.~.~.~.~.~.~.~.~.~.~.~.~.~.~.~.~.~.~.~.~.~.~.  > U.v.o o g g o X p.x.;   ~.~.~.~.~.~.~.~.~.~.~.~.~.~.~.~.~.~.~.~.~.~.~.~.~.",
"~.~.~.~.~.~.~.~.~.~.~.~.~.~.~.~.~.~.~.~.~.~.~.~.~.  > U.v.o o g g o X p.c.;   ~.~.~.~.~.~.~.~.~.~.~.~.~.~.~.~.~.~.~.~.~.~.~.~.~.",
"~.~.~.~.~.~.~.~.~.~.~.~.~.~.~.~.~.~.~.~.~.~.~.~.~.  > U.m.4 2  .w X o p.c.;   ~.~.~.~.~.~.~.~.~.~.~.~.~.~.~.~.~.~.~.~.~.~.~.~.~.",
"~.~.~.~.~.~.~.~.~.~.~.~.~.~.~.~.~.~.~.~.~.~.~.~.~.  > I.Y.T U C M O o p.c.;   ~.~.~.~.~.~.~.~.~.~.~.~.~.~.~.~.~.~.~.~.~.~.~.~.~.",
"~.~.~.~.~.~.~.~.~.~.~.~.~.~.~.~.~.~.~.~.~.~.~.~.~.  > I.Y.R U C N 2 3 s.x.:   ~.~.~.~.~.~.~.~.~.~.~.~.~.~.~.~.~.~.~.~.~.~.~.~.~.",
"~.~.~.~.~.~.~.~.~.~.~.~.~.~.~.~.~.~.~.~.~.~.~.~.~.  > U.Y.E U C C P T h.x.:   ~.~.~.~.~.~.~.~.~.~.~.~.~.~.~.~.~.~.~.~.~.~.~.~.~.",
"~.~.~.~.~.~.~.~.~.~.~.~.~.~.~.~.~.~.~.~.~.~.~.~.~.  > U.Y.R U C C U R h.x.;   ~.~.~.~.~.~.~.~.~.~.~.~.~.~.~.~.~.~.~.~.~.~.~.~.~.",
"~.~.~.~.~.~.~.~.~.~.~.~.~.~.~.~.~.                  > I.Y.T U C C U R h.x.;                   ~.~.~.~.~.~.~.~.~.~.~.~.~.~.~.~.~.",
"~.~.~.~.~.~.~.~.~.~.~.~.~.~.~.~.; > > > > > > > > > u U.Y.T U C C U T h.c.t ; : ; : ; ; : : ; * ~.~.~.~.~.~.~.~.~.~.~.~.~.~.~.~.",
"~.~.~.~.~.~.~.~.~.~.~.~.~.~.    z Y.I.I.I.I.I.I.I.I.I.T.Y.E U C C U R h.b.x.x.x.x.x.x.x.x.x.x.s     ~.~.~.~.~.~.~.~.~.~.~.~.~.~.",
"~.~.~.~.~.~.~.~.~.~.~.~.~.~.* = v Y.H.J.J.J.J.J.J.J.J.Y.B.R U A A P I 9.h.j.j.j.j.j.j.h.h.h.h.k * $ ~.~.~.~.~.~.~.~.~.~.~.~.~.~.",
"~.~.~.~.~.~.~.~.~.~.~.~.    c I.8.R ` 4.4.4.4.4.4.4.<.E R Y Y Y Y Y Y I T T R R R T R R R R R =.x.f     ~.~.~.~.~.~.~.~.~.~.~.~.",
"~.~.~.~.~.~.~.~.~.~.~.~.* $ v J.2.Y } e.e.4.5.4.4.1.| R Y Y Y Y Y Y Y Y Y Y Y Y Y Y Y Y Y Y Y *.z.k $ $ ~.~.~.~.~.~.~.~.~.~.~.~.",
"~.~.~.~.~.~.~.~.~.~.    b N.:.E ` | A.Q.W.K.K.K.D.1.1.<.| Y Y Y Y Y Y Y C C C C C C C C C Y Y R E $.f.g     ~.~.~.~.~.~.~.~.~.~.",
"~.~.~.~.~.~.~.~.~.~.    n T.2.Y _ 1.D.!.E.L.L.P.F.1.1.1.| R Y Y Y Y Y Y V C C C C V B B B Y Y Y Y &.n.x     ~.~.~.~.~.~.~.~.~.~.",
"~.~.~.~.~.~.~.~.~.~.    n T.2.Y _ 1.y.P.L.L.L.L.F.4.1.1.| Y Y Y Y Y Y Y Y Y Y Y Y Y B V B C C Y Y &.n.x     ~.~.~.~.~.~.~.~.~.~.",
"~.~.~.~.~.~.~.~.~.~.    n T.2.Y _ 1.y.L.L.K.K.K.D.1.1.1.| Y Y Y Y Y Y Y Y Y Y Y Y S C V B B B Y Y &.n.x     ~.~.~.~.~.~.~.~.~.~.",
"~.~.~.~.~.~.~.~.~.~.    n T.2.Y _ 1.t.L.D.5.5.5.5.1.1.1.| R Y Y Y Y Y Y Y Y Y Y Y Y Y Y B B B Y Y &.n.x     ~.~.~.~.~.~.~.~.~.~.",
"~.~.~.~.~.~.~.~.~.~.    n T.2.Y _ 1.t.K.S.1.1.1.1.1.1.<.| Y Y Y Y Y Y Y Y Y Y Y Y Y Y F V B B Y Y &.n.x     ~.~.~.~.~.~.~.~.~.~.",
"~.~.~.~.~.~.~.~.~.~.    n T.2.Y _ 1.[ Z / 1.1.1.1.1.<.E R Y Y Y Y Y Y Y Y Y Y Y Y Y Y Y P Y B Y Y &.n.x     ~.~.~.~.~.~.~.~.~.~.",
"~.~.~.~.~.~.~.~.~.~.    n T.2.Y _ 1.Q B J 1.1.1.1.1.| Y Y Y Y Y Y Y Y Y Y Y Y Y Y Y Y Y Y F B Y Y &.n.x     ~.~.~.~.~.~.~.~.~.~.",
"~.~.~.~.~.~.~.~.~.~.    n T.2.Y R E H B C K ! 1.| E R Y Y Y Y Y Y Y Y Y Y Y Y Y Y Y Y Y Y C B Y Y &.n.x     ~.~.~.~.~.~.~.~.~.~.",
"~.~.~.~.~.~.~.~.~.~.    n T.2.Y Y Y Y V V B J 1.} Y Y Y Y Y Y Y Y Y Y Y Y Y Y Y Y Y Y S B B V Y Y &.b.x     ~.~.~.~.~.~.~.~.~.~.",
"~.~.~.~.~.~.~.~.~.~.~.~.< 1 O.B.,.Y Y B V B D E E Y Y Y Y Y Y Y Y Y Y Y Y Y Y Y Y Y Y C B F L / 9...< > ~.~.~.~.~.~.~.~.~.~.~.~.",
"~.~.~.~.~.~.~.~.~.~.~.~.    c R.q.Y Y V V B Y Y Y Y Y Y Y Y Y Y Y Y Y Y Y Y Y Y Y Y B V B Y Y ;.M.g     ~.~.~.~.~.~.~.~.~.~.~.~.",
"~.~.~.~.~.~.~.~.~.~.~.~.    c R.w.Y Y L S V C S Y Y Y Y Y Y Y Y Y Y Y Y Y Y Y Y S C V B V Y Y -.n.f     ~.~.~.~.~.~.~.~.~.~.~.~.",
"~.~.~.~.~.~.~.~.~.~.~.~.    c R.w.Y Y Y L B V B Y Y Y Y Y Y Y Y Y Y Y Y Y Y Y Y B V B B B Y Y -.M.g     ~.~.~.~.~.~.~.~.~.~.~.~.",
"~.~.~.~.~.~.~.~.~.~.~.~.~.~.t d O.r.>.Y L V B B Y Y Y Y Y Y Y Y Y Y Y Y Y Y F C B V V S Y ~ 6. .y < ~.~.~.~.~.~.~.~.~.~.~.~.~.~.",
"~.~.~.~.~.~.~.~.~.~.~.~.~.~.    x R.r.Y L B B B Y Y Y Y Y Y Y Y Y Y Y Y Y C V B V B B L Y 6.M.d     ~.~.~.~.~.~.~.~.~.~.~.~.~.~.",
"~.~.~.~.~.~.~.~.~.~.~.~.~.~.~.~.r x O.q.%.Y S V C Y Y Y Y Y Y Y Y Y Y Y F C V V B S Y ~ ;. .d < ~.~.~.~.~.~.~.~.~.~.~.~.~.~.~.~.",
"~.~.~.~.~.~.~.~.~.~.~.~.~.~.~.~.~.  f R.V.Y L B B B C Y Y Y Y Y Y Y Y C B B B B V L Y 7.M.y   ~.~.~.~.~.~.~.~.~.~.~.~.~.~.~.~.~.",
"~.~.~.~.~.~.~.~.~.~.~.~.~.~.~.~.~.  r c +.2.>.F S B C Y Y Y Y Y Y Y Y C B V B S Y ~ &...g <   ~.~.~.~.~.~.~.~.~.~.~.~.~.~.~.~.~.",
"~.~.~.~.~.~.~.~.~.~.~.~.~.~.~.~.~.~.~.  u R.B.Y P B B B B B B B B B B V V B B L Y 9.M.1   ~.~.~.~.~.~.~.~.~.~.~.~.~.~.~.~.~.~.~.",
"~.~.~.~.~.~.~.~.~.~.~.~.~.~.~.~.~.~.~.  r n +.3.[ F S V B V B V B B B B V S Y ^ %...x <   ~.~.~.~.~.~.~.~.~.~.~.~.~.~.~.~.~.~.~.",
"~.~.~.~.~.~.~.~.~.~.~.~.~.~.~.~.~.~.~.~.~.  r R.Z.R U V B V V B B B V B B P Y B.M.<   ~.~.~.~.~.~.~.~.~.~.~.~.~.~.~.~.~.~.~.~.~.",
"~.~.~.~.~.~.~.~.~.~.~.~.~.~.~.~.~.~.~.~.~.  < i.#.,.' F Y V B V B V V Y Y ! / o.c ,   ~.~.~.~.~.~.~.~.~.~.~.~.~.~.~.~.~.~.~.~.~.",
"~.~.~.~.~.~.~.~.~.~.~.~.~.~.~.~.~.~.~.~.~.~.~.  < U.C.R U C B B B B C U R B.v.,   ~.~.~.~.~.~.~.~.~.~.~.~.~.~.~.~.~.~.~.~.~.~.~.",
"~.~.~.~.~.~.~.~.~.~.~.~.~.~.~.~.~.~.~.~.~.~.~.  , p.#.>.] D Y B V Y S Q / X.b :   ~.~.~.~.~.~.~.~.~.~.~.~.~.~.~.~.~.~.~.~.~.~.~.",
"~.~.~.~.~.~.~.~.~.~.~.~.~.~.~.~.~.~.~.~.~.~.~.~.~.  , I.Y.R U C C U T j.c.:   ~.~.~.~.~.~.~.~.~.~.~.~.~.~.~.~.~.~.~.~.~.~.~.~.~.",
"~.~.~.~.~.~.~.~.~.~.~.~.~.~.~.~.~.~.~.~.~.~.~.~.~.  : f.g.{ ] S Y ) Q @.n ;   ~.~.~.~.~.~.~.~.~.~.~.~.~.~.~.~.~.~.~.~.~.~.~.~.~.",
"~.~.~.~.~.~.~.~.~.~.~.~.~.~.~.~.~.~.~.~.~.~.~.~.~.~.~.. : J.G.E T z.l.; . ~.~.~.~.~.~.~.~.~.~.~.~.~.~.~.~.~.~.~.~.~.~.~.~.~.~.~.",
"~.~.~.~.~.~.~.~.~.~.~.~.~.~.~.~.~.~.~.~.~.~.~.~.~.~.~.  ; f.l.( ( @.u.*   ~.~.~.~.~.~.~.~.~.~.~.~.~.~.~.~.~.~.~.~.~.~.~.~.~.~.~.",
"~.~.~.~.~.~.~.~.~.~.~.~.~.~.~.~.~.~.~.~.~.~.~.~.~.~.~.~.~.o ; d.d.= X ~.~.~.~.~.~.~.~.~.~.~.~.~.~.~.~.~.~.~.~.~.~.~.~.~.~.~.~.~.",
"~.~.~.~.~.~.~.~.~.~.~.~.~.~.~.~.~.~.~.~.~.~.~.~.~.~.~.~.~.  $ i.i.$   ~.~.~.~.~.~.~.~.~.~.~.~.~.~.~.~.~.~.~.~.~.~.~.~.~.~.~.~.~.",
"~.~.~.~.~.~.~.~.~.~.~.~.~.~.~.~.~.~.~.~.~.~.~.~.~.~.~.~.~.~.~.o o ~.~.~.~.~.~.~.~.~.~.~.~.~.~.~.~.~.~.~.~.~.~.~.~.~.~.~.~.~.~.~.",
"~.~.~.~.~.~.~.~.~.~.~.~.~.~.~.~.~.~.~.~.~.~.~.~.~.~.~.~.~.~.~.    ~.~.~.~.~.~.~.~.~.~.~.~.~.~.~.~.~.~.~.~.~.~.~.~.~.~.~.~.~.~.~."
};
