/* XPM */
static char *_a758b37823f42edca238bd096f10949mwdqabpakQ9nDIPH[] = {
/* columns rows colors chars-per-pixel */
"80 80 180 2 ",
"   c None",
".  c black",
"X  c #020000",
"o  c #060100",
"O  c #0B0200",
"+  c #0F0400",
"@  c #140600",
"#  c #180600",
"$  c #1A0900",
"%  c #1F0B00",
"&  c #230D00",
"*  c #281000",
"=  c #2C1200",
"-  c #2E1400",
";  c #321500",
":  c #351700",
">  c #381A00",
",  c #3D1B00",
"<  c #3F1E00",
"1  c #411F00",
"2  c #432000",
"3  c #462200",
"4  c #4A2300",
"5  c #4C2400",
"6  c #4E2700",
"7  c #512900",
"8  c #542A00",
"9  c #522E00",
"0  c #582D00",
"q  c #5D2F00",
"w  c #583200",
"e  c #5C3400",
"r  c #623300",
"t  c #603700",
"y  c #663500",
"u  c #653900",
"i  c #623C00",
"p  c #663D00",
"a  c #6C3900",
"s  c #6A3F00",
"d  c #664400",
"f  c #6D4300",
"g  c #714000",
"h  c #754500",
"j  c #7A4400",
"k  c #754F00",
"l  c #7B4A00",
"z  c #7C4E00",
"x  c #7E5500",
"c  c #804C00",
"v  c #825100",
"b  c #855100",
"n  c #815700",
"m  c #875700",
"M  c #8A5400",
"N  c #865E00",
"B  c #8A5C00",
"V  c #8D5F00",
"C  c #905700",
"Z  c #965F00",
"A  c #8C6500",
"S  c #936100",
"D  c #906200",
"F  c #916700",
"G  c #966600",
"H  c #9D6000",
"J  c #936B00",
"K  c #956F00",
"L  c #9A6A00",
"P  c #9C6F00",
"I  c #997600",
"U  c #A56300",
"Y  c #A56C00",
"T  c #B06300",
"R  c #BC6500",
"E  c #B16900",
"W  c #B76B00",
"Q  c #BA6900",
"!  c #BA6A00",
"~  c #BC6800",
"^  c #BD6800",
"/  c #BC6B00",
"(  c #BA6F00",
")  c #BC6C00",
"_  c #A17600",
"`  c #A87300",
"'  c #A67A00",
"]  c #A27D00",
"[  c #B47400",
"{  c #BC7300",
"}  c #BE7300",
"|  c #BC7400",
" . c #B57E00",
".. c #BE7F00",
"X. c #C06900",
"o. c #C26E00",
"O. c #C46D00",
"+. c #C46F00",
"@. c #C86C00",
"#. c #C96C00",
"$. c #C96E00",
"%. c #C86F00",
"&. c #CE6E00",
"*. c #C67000",
"=. c #C27400",
"-. c #C27500",
";. c #C97500",
":. c #CA7700",
">. c #C47800",
",. c #C57900",
"<. c #C47A00",
"1. c #C17F00",
"2. c #CA7A00",
"3. c #CC7A00",
"4. c #CC7C00",
"5. c #CE7E00",
"6. c #D27200",
"7. c #D47300",
"8. c #D27500",
"9. c #D07900",
"0. c #D37C00",
"q. c #D37D00",
"w. c #D27E00",
"e. c #D67D00",
"r. c #A58101",
"t. c #AF8401",
"y. c #AD8801",
"u. c #BD8200",
"i. c #B48901",
"p. c #B08E01",
"a. c #BA8E01",
"s. c #B79501",
"d. c #BD9401",
"f. c #BE9B01",
"g. c #BF9F01",
"h. c #C18000",
"j. c #C38000",
"k. c #C08300",
"l. c #C58400",
"z. c #CA8500",
"x. c #CC8600",
"c. c #C08A00",
"v. c #C18A00",
"b. c #C28B00",
"n. c #C78F00",
"m. c #C88800",
"M. c #D28500",
"N. c #DA8100",
"B. c #D98200",
"V. c #C29001",
"C. c #C49001",
"Z. c #C29601",
"A. c #C49701",
"S. c #CB9101",
"D. c #CE9601",
"F. c #C59F01",
"G. c #C69E01",
"H. c #C69F01",
"J. c #C99A01",
"K. c #D19000",
"L. c #D29E01",
"P. c #E28500",
"I. c #E58800",
"U. c #E78900",
"Y. c #E88E00",
"T. c #F09000",
"R. c #C3A502",
"E. c #C7A601",
"W. c #CAA101",
"Q. c #C9A201",
"!. c #CBA301",
"~. c #C9AA02",
"^. c #CDA801",
"/. c #CDAB02",
"(. c #CFAC02",
"). c #D3A401",
"_. c #CFB202",
"`. c #D2B302",
"'. c #D1B402",
"]. c #D5BA03",
/* pixels */
"                                                                                                                                                                ",
"                                                                                                                                                                ",
"                                                                                                                                                                ",
"                                                                                                                                                                ",
"                                                                                                                                                                ",
"                                                                  ) ^ R @.@.@.@.#.+.R R R ^ ^ +.                                                                ",
"                                                            *.^ R *.&.@.^ ) E ^ Q ^ ^ Q ^ -.*.*.R Q                                                             ",
"                                                        T ^ &.8.7.) Z M x v c x x v m B n D ` [ -.*.X.Q                                                         ",
"                                                      ^ @.@.) U Z B h 9 2 8 0 6 < 9 u r 9 i k B P  .u.>.T                                                       ",
"                                                  ^ @.7.@.U b f r w 8 - % = , = $ ; 6 9 5 q y s k A ' b.x.|                                                     ",
"                                                ^ &.7.E H M s 2 ; 1 2 > % & = $ o o O # & : 2 0 e f n K i.K.>.Q                                                 ",
"                                            *.^ 7.6.E M f 8 2 : & & & % o . . . . . . . o @ = 1 5 q r h V _ u.4.|                                               ",
"                                            X.7.) U M p > @ @ % + o o . . . . . . . . . . . . . # : 1 6 i k I a.K.| +.                                          ",
"                                          X.7.) H v u < & O . . . . . . . . . . . . . . . . . o $ = = ; 1 w k K a.).l.                                          ",
"                                        X.*.^ H z w = O . . . . . . . . . . . . . . . . . . . . . o & < 8 q r k K d.).1.                                        ",
"                                      7.7.^ H z e , & O . . . . . . . . . . . . . . . . . . . . . . . O & & , q c L d.L.-.                                      ",
"                                    ^ &.@.U b u 1 * & $ O . . . . . . . . . . . . . . . . . . . . . . . O @ * , 9 z P d.V.:.                                    ",
"                                  :.+.@.U v u 8 1 & O . . . . . . . . . . . . . . . . . . . . . . . . . @ - 1 2 2 i N y.)...                                    ",
"                                  X.7.^ Z f 2 - ; % . . . . . . . . . . . . . . . . . . . . . . . . . . . . & 4 e a z L a.D.-.                                  ",
"                                Q @.2.Y v y 2 = @ . . . . . . . . . . . . . . . . . . . . . . . . . . . . . # : 4 7 y v _ F.C.e.                                ",
"                                Q 7.[ V p 2 ; o . . . . . . . . . . . . . . . . . . . . . . . . . . . . . . . # > 2 0 h D s.Q.>.                                ",
"                                +.:.Y v 8 # . . . . . . . . . . . . . . . . . . . . . . . . . . . . . . . . . . & 8 0 w k I d.a.o.                              ",
"                              ^ @.[ A s > % o . . . . . . . . . . . . . . . . . . . . . . . . . . . . . . . . . . @ : 6 s V p.)...                              ",
"                              ^ :.Y v w = & o . . . . . . . . . . . . . . . . . . . . . . . . . . . . . . . . . . . @ 1 y b _ Z.V.-.                            ",
"                            ) &.-.S l e = . . . . . . . . . . . . . . . . . . . . . . . . . . . . . . . . . . . . . . % < s S t.A.{                             ",
"                            X.@.Y M e > & . . . . . . . . . . . . . . . . . . . . . . . . . . . . . . . . . . . . . . @ 1 a m ' H.1.e.                          ",
"                          +.@.-.L b q & . . . . . . . . . . . . . . . . . . . . . . . . . . . . . . . . . . . . . . . o = q v P d.b.-.                          ",
"                          ^ 7.E M s 7 & O . . . . . . . . . . . . . . . . . . . . . . . . . . . . . . . . . . . . . . . * 0 z G s.^.-.                          ",
"                          ^ -.H b r 1 : $ . . . . . . . . . . . . . . . . . . . . . . . . . . . . . . . . . . . . . . . O 1 u B t.Q.{                           ",
"                          @.-.S c a 0 4 @ . . . . . . . . . . . . . . . . . . . . . . . . . . . . . . . . . . . . . . . O ; r M _ ~.n.3.                        ",
"                        ) *.[ V j 0 4 , @ . . . . . . . . . . . . . . . . . . . . . . . . . . . . . . . . . . . . . . . @ : 6 l L R.!.>.                        ",
"                        Q 4.[ S j 0 6 = . . . . . . . . . . . . . . . . . . . . . . . . . . . . . . . . . . . . . . . . O 1 7 s Z t.Q.|                         ",
"                        R :.` V e < : O . . . . . . . . . . . . . . . . . . . . . . . . . . . . . . . . . . . . . . . . + 1 r a C ' `.1.e.                      ",
"                        ^ -.Y M a 2 @ . . . . . . . . . . . . . . . . . . . . . . . . . . . . . . . . . . . . . . . . . . = 5 8 c P ~.J.B.                      ",
"                        ^ x.Y b e < O . . . . . . . . . . . . . . . . . . . . . . . . . . . . . . . . . . . . . . . . . . & 8 y l L d.J.9.                      ",
"                      +.+.z.Y l 2 * . . . . . . . . . . . . . . . . . . . . . . . . . . . . . . . . . . . . . . . . . . . % > r c J s.J.N.                      ",
"                      Q 3.z.L p ; @ . . . . . . . . . . . . . . . . . . . . . . . . . . . . . . . . . . . . . . . . . . . # ; 6 c J s.Z.e.                      ",
"                      W 4.u.S f - & + . . . . . . . . . . . . . . . . . . . . . . . . . . . . . . . . . . . . . . . . . . @ , 6 M K s.b.w.                      ",
"                      W 4. .V s , ; $ . . . . . . . . . . . . . . . . . . . . . . . . . . . . . . . . . . . . . . . . . . o - < l J F.Z.w.                      ",
"                      W 4. .B u ; - # . . . . . . . . . . . . . . . . . . . . . . . . . . . . . . . . . . . . . . . . . . o 2 8 j A s.F.w.                      ",
"                        M. .N e - + . . . . . . . . . . . . . . . . . . . . . . . . . . . . . . . . . . . . . . . . . . . o 8 y c Z i.Z.w.                      ",
"                        M.u.A i 2 & . . . . . . . . . . . . . . . . . . . . . . . . . . . . . . . . . . . . . . . . . . . o 6 r j V t.F.w.                      ",
"                        3.u.G c r 2 . . . . . . . . . . . . . . . . . . . . . . . . . . . . . . . . . . . . . . . . . . . o 4 a j V t.F.w.T.                    ",
"                        (  .Z b a r + . . . . . . . . . . . . . . . . . . . . . . . . . . . . . . . . . . . . . . . . . . . , y h A t.F.4.T.                    ",
"                        ( b.L l 6 4 @ . . . . . . . . . . . . . . . . . . . . . . . . . . . . . . . . . . . . . . . . . . . , q f A s.(.w.                      ",
"                        { z.P z 8 2 % . . . . . . . . . . . . . . . . . . . . . . . . . . . . . . . . . . . . . . . . . . o 7 y z D g.Q.w.                      ",
"                        { x._ z 9 : $ . . . . . . . . . . . . . . . . . . . . . . . . . . . . . . . . . . . . . . . . . . & 1 0 z P g.C.P.                      ",
"                        =.K.' k 6 ; * o . . . . . . . . . . . . . . . . . . . . . . . . . . . . . . . . . . . . . . . . O 1 8 u m t._.n.U.                      ",
"                        ) K.t.m e = O . . . . . . . . . . . . . . . . . . . . . . . . . . . . . . . . . . . . . . . . . # ; 4 h Z p.^.>.U.                      ",
"                        Q M.a.J s 4 @ . . . . . . . . . . . . . . . . . . . . . . . . . . . . . . . . . . . . . . . . . = = 1 j L d.J.8.B.                      ",
"                          j.b.K f 8 , O . . . . . . . . . . . . . . . . . . . . . . . . . . . . . . . . . . . . . . . . & 1 y M ' `.J.w.                        ",
"                          >.n._ n r < & . . . . . . . . . . . . . . . . . . . . . . . . . . . . . . . . . . . . . . . + & < y M t.~.u.B.                        ",
"                          -.K.i.V s q 1 + . . . . . . . . . . . . . . . . . . . . . . . . . . . . . . . . . . . . . O = , < e B y.~.h.U.                        ",
"                          *.1.b.K f 9 q 2 @ . . . . . . . . . . . . . . . . . . . . . . . . . . . . . . . . . . . . . $ ; 4 h J F.`.w.                          ",
"                            >.S.I n e = > = O . . . . . . . . . . . . . . . . . . . . . . . . . . . . . . . . . . . . $ > e c ' _.Q.U.                          ",
"                            :.D.a.G h 0 2 = @ . . . . . . . . . . . . . . . . . . . . . . . . . . . . . . . . . . . * 4 8 p S s.'.h.T.                          ",
"                              h.).r.v r 8 8 > % o . . . . . . . . . . . . . . . . . . . . . . . . . . . . . . . . @ 2 0 a b _ ~.Q.4.                            ",
"                              -.K.t.V j r 8 8 = o . . . . . . . . . . . . . . . . . . . . . . . . . . . . . . . O = = 2 h G i.'...U.                            ",
"                              +.b.A.L z r 6 2 : & O . . . . . . . . . . . . . . . . . . . . . . . . . . . . . . o % ; e m ' F.V.3.                              ",
"                                { S.t.V g 8 , & @ o . . . . . . . . . . . . . . . . . . . . . . . . . . . . . . . & 8 c I g./.>.B.                              ",
"                                :.1.A.' M a 2 = & $ O . . . . . . . . . . . . . . . . . . . . . . . . . . . . @ , 1 u V p.].n.B.                                ",
"                                  -.L.d.I M j y 8 1 ; & # o . . . . . . . . . . . . . . . . . . . . . . . . & 1 4 w k ] Q.Q.>.Y.                                ",
"                                    1.).Z.I b g q 2 ; = = @ . . . . . . . . . . . . . . . . . . . . . . O $ & = 2 p A s.'.h.P.                                  ",
"                                    W h.E.t.A f 8 6 , & O . . . . . . . . . . . . . . . . . . . . . . . @ ; , 6 u n ] `.Q.w.                                    ",
"                                      Q h.a._ V f 8 < ; @ o . . . . . . . . . . . . . . . . . . . . @ : 2 2 2 e x ] R.Q.2.                                      ",
"                                        R b.A.' m u 4 1 1 ; + . . . . . . . . . . . . . . . . @ = ; ; , 1 2 e k I R.`.1.Y.                                      ",
"                                          >.Q.F.] n i 4 , & = % # O . . . . . . . . . . . O @ % > 2 , = : e x I f./...P.                                        ",
"                                          e.| ^.E.] x e > = < < > & + o . . . . . . . . . $ & * = , 2 4 r n I g.`.m.U.                                          ",
"                                            9...`.~.r.B s 8 4 4 3 > > - @ o o . . o @ % & : 2 6 1 4 w f N r.E.'.m.U.                                            ",
"                                                h.Q.E.t.D x u 8 4 2 4 3 : : : ; - = , 2 > ; 2 6 9 i k J y._.(.m.P.                                              ",
"                                                  >.Q.].g.] V v h e e 4 , , , , > & ; 2 2 2 9 p x D r.F.'.Q.2.U.                                                ",
"                                                    3.n.^.E.s.] K B c f e 9 6 1 < = < 9 e d x J y.R.'.F.l.B.T.                                                  ",
"                                                      e.2.b.F.Q.R.s.] K A n k d i d k N J r.p.g.Q.J.z.w.U.                                                      ",
"                                                          9.=...b.Z.F.E.R.s.y.r.] p.p.g.E.`.(.C.>.M.U.T.                                                        ",
"                                                              9.o.-.{ u.n.W.W./.^.`.^.J.b...4.U.Y.                                                              ",
"                                                                    e.9.9.-.-.4.w.B.B.B.P.I.T.                                                                  ",
"                                                                                                                                                                ",
"                                                                                                                                                                ",
"                                                                                                                                                                ",
"                                                                                                                                                                "
};
